<svg width="79" height="51" viewBox="0 0 79 51" fill="none" xmlns="http://www.w3.org/2000/svg">
<path d="M38.4455 0.000198519L38.4492 0.00215933C34.9647 0.028616 32.0187 1.97483 30.7832 3.94351C30.3467 4.63902 30.0413 5.33128 29.8242 6.03143C28.403 4.80271 26.291 3.60725 23.7753 3.62517V3.61756C20.2909 3.64401 17.3449 5.59034 16.1094 7.55902C14.8739 9.5277 14.6601 11.4688 14.6601 13.6449V18.7738C13.2638 17.7048 11.3452 16.7677 9.11525 16.7836C5.63083 16.8101 2.68476 18.7564 1.44927 20.7251C0.213821 22.6937 0 24.6349 0 26.811V43.4008C0 43.7848 0.25661 44.0415 0.64061 44.0415H2.92184C3.306 44.0415 3.56049 43.7848 3.56049 43.4008V26.811C3.56049 22.971 5.5444 20.2837 9.06438 20.2837C9.0795 20.2837 9.09085 20.2855 9.10937 20.2856C9.12449 20.2855 9.14346 20.2837 9.15631 20.2837C12.6763 20.2837 14.6602 23.0843 14.6602 26.9243V35.5922V35.5998V35.6073C14.6605 35.63 14.6604 35.6507 14.6622 35.6719C14.6641 35.6946 14.6659 35.7128 14.6697 35.7325C14.6772 35.7763 14.6886 35.8182 14.7037 35.8575C14.7044 35.8594 14.7049 35.8613 14.7056 35.8651C14.7132 35.884 14.7208 35.8991 14.7284 35.9157C14.7292 35.9176 14.7294 35.9196 14.7303 35.9234C14.7379 35.9385 14.7492 35.9536 14.7567 35.9702C14.8652 36.1422 15.0554 36.2457 15.2978 36.2457H17.5771C17.9154 36.2457 18.1519 36.0454 18.204 35.7359C18.2115 35.694 18.2154 35.6509 18.2154 35.6051V35.5976V26.9296V13.6504C18.2154 9.81035 20.1993 7.12292 23.7193 7.12292C23.7344 7.12292 23.7495 7.12476 23.7643 7.12488C23.7794 7.12476 23.7945 7.12292 23.8092 7.12292C27.3292 7.12292 29.3131 9.81035 29.3131 13.6504V35.6034C29.3131 35.9874 29.5698 36.2441 29.9538 36.2441H32.233C32.337 36.2441 32.43 36.2214 32.5124 36.1874C32.5464 36.1723 32.5815 36.1572 32.6122 36.1349C32.7856 36.0268 32.8896 35.8359 32.8896 35.5919V10.0275C32.8896 6.18746 34.8735 3.50014 38.3934 3.50014C38.4086 3.50014 38.4237 3.50187 38.4384 3.50198C38.4535 3.50187 38.4687 3.50014 38.4834 3.50014C42.0034 3.50014 43.9873 6.18746 43.9873 10.0275V31.9805C43.9873 32.055 43.9949 32.1238 44.0138 32.1877V35.6017C44.0138 35.9857 44.2704 36.2423 44.6544 36.2423H46.9337C47.3179 36.2423 47.5725 35.9857 47.5725 35.6017V13.6486C47.5725 9.80862 49.5564 7.1213 53.0764 7.1213C53.0915 7.1213 53.1066 7.12303 53.1214 7.12315C53.1365 7.12303 53.1515 7.1213 53.1662 7.1213C56.6862 7.1213 58.6702 9.80862 58.6702 13.6486V25.6291C58.6173 26.0903 58.5901 26.5634 58.5901 27.0471V40.2307C58.5901 45.9906 62.4926 50.2794 68.3166 50.2794C73.9486 50.2794 77.7252 46.0546 78.0452 40.2307C78.0452 39.8467 77.7885 39.59 77.4045 39.59H75.0374C74.6534 39.59 74.3968 39.7828 74.3968 40.2307C74.1409 44.1346 71.9006 46.758 68.3166 46.758C64.5406 46.758 62.2365 44.0706 62.2365 40.2307V27.0471C62.2365 23.2071 64.4776 20.5197 68.1896 20.5197C71.7096 20.5197 73.8848 22.8864 74.1408 26.4064C74.1408 26.8544 74.3974 27.0471 74.7814 27.0471H77.1487C77.5327 27.0471 77.7893 26.7904 77.7893 26.4064C77.4692 20.9664 73.7576 16.9982 68.1896 16.9982C65.8398 16.9982 63.8091 17.7133 62.2288 18.9494V13.6486C62.2288 11.4735 61.6635 8.88965 60.4983 7.39466C59.3331 5.89967 56.6136 3.59645 53.1291 3.62125C50.635 3.64014 48.417 4.64333 46.9045 5.93374C46.6305 5.10761 46.2675 4.3571 45.8127 3.77361C44.6475 2.27862 41.93 -0.0245952 38.4455 0.000198519Z" fill="#F4F4F9"/>
</svg>
