<svg width="79" height="51" viewBox="0 0 79 51" fill="none" xmlns="http://www.w3.org/2000/svg">
<path d="M38.4455 0.000198514L38.4492 0.00215933C34.9647 0.028616 32.0187 1.97489 30.7832 3.94357C30.3467 4.63908 30.0413 5.33128 29.8242 6.03143C28.403 4.80271 26.291 3.60731 23.7753 3.62523V3.61767C20.2909 3.64413 17.3449 5.5904 16.1094 7.55908C14.8739 9.52776 14.6601 11.4689 14.6601 13.645V18.7739C13.2638 17.7049 11.3452 16.7678 9.11525 16.7837C5.63083 16.8101 2.68476 18.7564 1.44927 20.7251C0.213821 22.6937 0 24.6349 0 26.811V43.4009C0 43.7849 0.25661 44.0415 0.64061 44.0415H2.92184C3.306 44.0415 3.56049 43.7849 3.56049 43.4009V26.811C3.56049 22.971 5.5444 20.2837 9.06438 20.2837C9.0795 20.2837 9.09085 20.2855 9.10937 20.2856C9.12449 20.2855 9.14346 20.2837 9.15631 20.2837C12.6763 20.2837 14.6602 23.0843 14.6602 26.9243V35.5923V35.5998V35.6074C14.6605 35.6301 14.6604 35.6505 14.6622 35.672C14.6641 35.6947 14.6659 35.7128 14.6697 35.7325C14.6772 35.7763 14.6886 35.8183 14.7037 35.8576C14.7044 35.8595 14.7049 35.8614 14.7056 35.8652C14.7132 35.8841 14.7208 35.8992 14.7284 35.9158C14.7292 35.9176 14.7294 35.9196 14.7303 35.9234C14.7379 35.9385 14.7492 35.9536 14.7567 35.9702C14.8652 36.1422 15.0554 36.2457 15.2978 36.2457H17.5771C17.9154 36.2457 18.1519 36.0454 18.204 35.736C18.2115 35.694 18.2154 35.651 18.2154 35.6052V35.5977V26.9297V13.6504C18.2154 9.81041 20.1993 7.12303 23.7193 7.12303C23.7344 7.12303 23.7495 7.12488 23.7643 7.12499C23.7794 7.12488 23.7945 7.12303 23.8092 7.12303C27.3292 7.12303 29.3131 9.81041 29.3131 13.6504V35.6035C29.3131 35.9875 29.5698 36.2442 29.9538 36.2442H32.233C32.337 36.2442 32.43 36.2215 32.5124 36.1875C32.5464 36.1724 32.5815 36.1573 32.6122 36.135C32.7856 36.0269 32.8896 35.836 32.8896 35.592V10.0275C32.8896 6.18752 34.8735 3.50014 38.3934 3.50014C38.4086 3.50014 38.4237 3.50198 38.4384 3.5021C38.4535 3.50198 38.4687 3.50014 38.4834 3.50014C42.0034 3.50014 43.9873 6.18752 43.9873 10.0275V31.9806C43.9873 32.0551 43.9949 32.1238 44.0138 32.1877V35.6018C44.0138 35.9858 44.2704 36.2425 44.6544 36.2425H46.9337C47.3179 36.2425 47.5725 35.9858 47.5725 35.6018V13.6487C47.5725 9.80868 49.5564 7.1213 53.0764 7.1213C53.0915 7.1213 53.1066 7.12315 53.1214 7.12326C53.1365 7.12315 53.1515 7.1213 53.1662 7.1213C56.6862 7.1213 58.6702 9.80868 58.6702 13.6487V25.6291C58.6173 26.0904 58.5901 26.5634 58.5901 27.0471V40.2307C58.5901 45.9907 62.4926 50.2795 68.3166 50.2795C73.9486 50.2795 77.7252 46.0547 78.0452 40.2307C78.0452 39.8467 77.7885 39.592 77.4045 39.592H75.0374C74.6534 39.592 74.3968 39.7825 74.3968 40.2307C74.1409 44.1347 71.9006 46.76 68.3166 46.76C64.5406 46.76 62.2365 44.0707 62.2365 40.2307V27.0471C62.2365 23.2071 64.4776 20.5198 68.1896 20.5198C71.7096 20.5198 73.8848 22.8865 74.1408 26.4065C74.1408 26.8545 74.3974 27.0471 74.7814 27.0471H77.1487C77.5327 27.0471 77.7893 26.7905 77.7893 26.4065C77.4692 20.9665 73.7576 16.9983 68.1896 16.9983C65.8398 16.9983 63.8091 17.7134 62.2288 18.9495V13.6487C62.2288 11.4736 61.6635 8.88977 60.4983 7.39478C59.3331 5.89978 56.6136 3.59651 53.1291 3.6213C50.635 3.6402 48.417 4.64339 46.9045 5.9338C46.6305 5.10767 46.2675 4.35715 45.8127 3.77367C44.6475 2.27868 41.93 -0.0245952 38.4455 0.000198514Z" fill="#334035"/>
</svg>
